<?xml version="1.0" standalone="no"?><!DOCTYPE svg PUBLIC "-//W3C//DTD SVG 1.1//EN" "http://www.w3.org/Graphics/SVG/1.1/DTD/svg11.dtd"><svg t="1488440256308" class="icon" style="" viewBox="0 0 1024 1024" version="1.1" xmlns="http://www.w3.org/2000/svg" p-id="1168" xmlns:xlink="http://www.w3.org/1999/xlink" width="200" height="200"><defs><style type="text/css"></style></defs><path d="M511.7 64.7c123.3 0 235.3 50.2 316.9 131.1 80.5 81.2 130.7 192.9 130.7 316.9 0 124-50.2 235.7-130.7 316.2l-2.8 2.8c-80.6 79.8-192.2 129-314.1 129-123.3 0-235.7-50.5-316.9-131.8-81-80.6-131.5-192.2-131.5-316.2S113.8 277 194.7 195.8l2.5-2.8c80.9-79.2 192.6-128.3 314.5-128.3z m-50.2 231.4v166.8H295.1c-27.6 0-49.5 22.6-49.5 49.8 0 27.2 21.9 49.8 49.5 49.8h166.4v166.8c0 27.6 22.6 49.4 50.2 49.4 27.2 0 49.4-21.9 49.4-49.4V562.5h166.4c27.9 0 50.2-22.6 50.2-49.8 0-27.2-22.3-49.8-50.2-49.8H561.1V296.1c0-27.6-22.2-49.5-49.4-49.5-27.6 0-50.2 21.9-50.2 49.5z m296.5-30C695.1 203.6 608.2 164 511.7 164c-95.4 0-181.3 38.2-244.2 100.4l-2.4 1.8C202.5 329.3 163 416.2 163 512.7c0 95.7 39.6 183.3 102.1 246.3 63.2 62.8 150.1 102 246.6 102 95 0 181.2-37.8 243.8-100l2.5-2.1c62.9-62.9 102.1-150.6 102.1-246.3 0-96.4-39.3-183.3-102.1-246.5z" p-id="1169" fill="#11bbda"></path></svg>