<?xml version="1.0" standalone="no"?><!DOCTYPE svg PUBLIC "-//W3C//DTD SVG 1.1//EN" "http://www.w3.org/Graphics/SVG/1.1/DTD/svg11.dtd"><svg t="1488441347316" class="icon" style="" viewBox="0 0 1024 1024" version="1.1" xmlns="http://www.w3.org/2000/svg" p-id="1522" xmlns:xlink="http://www.w3.org/1999/xlink" width="200" height="200"><defs><style type="text/css"></style></defs><path d="M95.093 897.812c-0.019 0-0.041 0-0.063 0-17.695 0-32.041-14.345-32.041-32.041 0-0.025 0-0.051 0-0.076v-449.582c0-0.019 0-0.041 0-0.063 0-17.695 14.345-32.041 32.041-32.041 0.022 0 0.044 0 0.067 0 0.015 0 0.038 0 0.060 0 17.695 0 32.041 14.345 32.041 32.039 0 0.022 0 0.044 0 0.067v449.402c0 0.062 0.001 0.134 0.001 0.207 0 17.715-14.362 32.076-32.076 32.076-0.009 0-0.020 0-0.029 0zM865.879 384.011h-190.026c13.815-32.103 29.692-115.119 20.538-190.71-7.245-60.067-42.624-106.147-94.050-123.75-38.16-12.942-78.543-6.561-100.286 15.533-25.893 26.406-37.98 76.114-50.922 128.753-8.46 34.343-17.082 70.065-27.953 88.533-31.239 53.164-96.651 77.319-109.764 81.63h-90.090c-0.021 0-0.047 0-0.071 0-17.695 0-32.041 14.345-32.041 32.039 0 0.025 0 0.051 0 0.076v449.403c0 0.019 0 0.041 0 0.063 0 17.695 14.345 32.041 32.041 32.041 0.022 0 0.044 0 0.067 0h86.811c26.928 14.499 126.855 64.206 242.658 64.206h216.612c35.73 0 97.173-13.806 120.123-51.948 23.13-38.665 72.144-390.060 72.144-428.886 0.172-53.505-52.29-96.993-95.786-96.993zM834.811 876.923c-4.833 8.108-36.585 20.708-65.070 20.708h-216.765c-114.606 0-215.91-64.197-216.945-64.197h-80.442v-385.227h64.206c2.592 0 5.003-0.855 7.425-1.548 0.513-0.18 1.035 0 1.548-0.18 0.617-0.318 1.343-0.515 2.113-0.542 0.479-0.314 1.343-0.314 2.207-0.836 19.503-6.39 102.861-37.449 145.665-110.286 15.533-26.406 25.020-65.070 34.857-105.795 9.153-37.972 20.718-85.257 34.173-98.892 3.114-2.592 18.126-6.039 36.937 1.377 15.364 6.048 42.121 23.13 47.808 69.903 12.601 102.87-31.59 200.718-31.932 201.753-1.887 3.904-2.989 8.49-2.989 13.334 0 6.338 1.888 12.234 5.132 17.159 5.694 8.665 15.498 14.382 26.637 14.382 0.077 0 0.153 0 0.23-0.001h236.094c8.802 0 31.751 15.022 31.751 32.967 0.18 42.975-49.356 365.543-62.649 395.919z" p-id="1523" fill="#707070"></path></svg>