<?xml version="1.0" standalone="no"?><!DOCTYPE svg PUBLIC "-//W3C//DTD SVG 1.1//EN" "http://www.w3.org/Graphics/SVG/1.1/DTD/svg11.dtd"><svg t="1488440783507" class="icon" style="" viewBox="0 0 1024 1024" version="1.1" xmlns="http://www.w3.org/2000/svg" p-id="1039" xmlns:xlink="http://www.w3.org/1999/xlink" width="200" height="200"><defs><style type="text/css"></style></defs><path d="M901.9 151H122.1c-31.8 0-57.8 25.9-57.8 57.8v519.8c0 31.9 25.9 57.8 57.8 57.8h70.6v57.8c0 0.6 0.1 1.1 0.2 1.6 0.1 1.1 0.1 2.2 0.3 3.2 0.1 0.8 0.3 1.5 0.5 2.3 0.3 1.1 0.6 2.2 1 3.3 0.3 0.7 0.6 1.3 0.9 1.9l0.9 2.1c0.2 0.4 0.6 0.7 0.8 1.1 0.3 0.5 0.7 0.9 1 1.4 0.8 1.1 1.6 2.1 2.6 3.1 0.3 0.3 0.7 0.6 1 1 1 0.9 2 1.8 3.1 2.6 0.5 0.4 1.1 0.6 1.6 1 1 0.6 2 1.2 3.1 1.7l2.4 0.9c0.9 0.3 1.9 0.7 2.8 0.9 0.9 0.2 1.8 0.3 2.7 0.5 1 0.1 2 0.3 3 0.3 0.3 0 0.7 0.1 1 0.1 0.6 0 1.1-0.1 1.6-0.2 1.1-0.1 2.1-0.1 3.1-0.3 0.8-0.1 1.7-0.3 2.5-0.6l3-0.9c0.8-0.3 1.5-0.7 2.3-1 0.6-0.3 1.3-0.5 1.9-0.8l143.4-82.8h522.4c31.8 0 57.8-25.9 57.8-57.8v-520c0-31.9-25.9-57.8-57.7-57.8z m0 577.6H370.6v0.2c-4.6 0.2-9.2 1.3-13.4 3.7l-106.7 61.6v-36.6c0-15.9-13-28.9-28.9-28.9h-99.5V208.8h779.7v519.8z" p-id="1040" fill="#3e4b94"></path><path d="M223.2 421.1h577.6c15.9 0 28.9-13 28.9-28.9 0-15.9-13-28.9-28.9-28.9H223.2c-15.9 0-28.9 13-28.9 28.9 0 15.9 13 28.9 28.9 28.9zM223.2 565.5h577.6c15.9 0 28.9-13 28.9-28.9 0-15.9-13-28.9-28.9-28.9H223.2c-15.9 0-28.9 13-28.9 28.9 0 15.9 13 28.9 28.9 28.9z" p-id="1041" fill="#3e4b94"></path></svg>