<?xml version="1.0" standalone="no"?><!DOCTYPE svg PUBLIC "-//W3C//DTD SVG 1.1//EN" "http://www.w3.org/Graphics/SVG/1.1/DTD/svg11.dtd"><svg t="1488442394745" class="icon" style="" viewBox="0 0 1024 1024" version="1.1" xmlns="http://www.w3.org/2000/svg" p-id="1622" xmlns:xlink="http://www.w3.org/1999/xlink" width="32" height="32"><defs><style type="text/css"></style></defs><path d="M264.52 494.448c0 42.952-34.808 77.752-77.784 77.752-42.952 0-77.76-34.808-77.76-77.752 0-42.984 34.808-77.784 77.76-77.784a77.76 77.76 0 0 1 77.784 77.784zM583.616 494.448c0 42.952-34.808 77.752-77.8 77.752-42.952 0-77.76-34.808-77.76-77.752 0-42.984 34.808-77.784 77.76-77.784a77.76 77.76 0 0 1 77.8 77.784zM902.704 494.448c0 42.952-34.808 77.752-77.792 77.752-42.976 0-77.784-34.808-77.784-77.752a77.76 77.76 0 0 1 77.784-77.784 77.76 77.76 0 0 1 77.792 77.784z" fill="#ffffff" p-id="1623"></path></svg>